<svg width="24" height="24" viewBox="0 0 24 24" fill="none" xmlns="http://www.w3.org/2000/svg">
<path d="M10.925 11.225L9.5 9.8C9.4 9.7 9.29167 9.625 9.175 9.575C9.05833 9.525 8.93733 9.5 8.812 9.5C8.68667 9.5 8.562 9.525 8.438 9.575C8.314 9.625 8.20133 9.7 8.1 9.8C7.91667 9.98333 7.825 10.2167 7.825 10.5C7.825 10.7833 7.91667 11.0167 8.1 11.2L10.225 13.35C10.425 13.55 10.6583 13.65 10.925 13.65C11.1917 13.65 11.425 13.55 11.625 13.35L16.275 9.1C16.275 8.83333 16.2583 8.575 16.225 8.325C16.1917 8.075 16.0833 7.85833 15.9 7.675C15.7 7.475 15.4623 7.375 15.187 7.375C14.9117 7.375 14.6743 7.475 14.475 7.675L10.925 11.225ZM1 21V19H22C22.2833 19 22.521 19.096 22.713 19.288C22.905 19.48 23.0007 19.7173 23 20C22.9993 20.2827 22.9033 20.5203 22.712 20.713C22.5207 20.9057 22.2833 21.0013 22 21H1ZM4 18C3.45 18 2.97933 17.8043 2.588 17.413C2.19667 17.0217 2.00067 16.5507 2 16V5C2 4.45 2.196 3.97933 2.588 3.588C2.98 3.19667 3.45067 3.00067 4 3H20C20.55 3 21.021 3.196 21.413 3.588C21.805 3.98 22.0007 4.45067 22 5V16C22 16.55 21.8043 17.021 21.413 17.413C21.0217 17.805 20.5507 18.0007 20 18H4ZM4 16H20V5H4V16Z" fill="black"/>
</svg>
