<svg width="9" height="6" viewBox="0 0 9 6" fill="none" xmlns="http://www.w3.org/2000/svg">
<g clip-path="url(#clip0_958_2994)">
<path d="M1.49772 3.65217C1.60156 3.65217 1.67426 3.6087 1.7158 3.52174C1.75734 3.43478 1.75734 3.34783 1.7158 3.26087C1.67426 3.17391 1.60156 3.13043 1.49772 3.13043C1.39387 3.13043 1.32117 3.17391 1.27963 3.26087C1.23809 3.34783 1.23809 3.43478 1.27963 3.52174C1.32117 3.6087 1.39387 3.65217 1.49772 3.65217ZM7.23409 3.41576C7.20813 3.38043 7.15815 3.3125 7.08416 3.21196C7.01017 3.11141 6.9563 3.03804 6.92255 2.99185C6.88879 2.94565 6.83947 2.87908 6.77456 2.79212C6.70965 2.70516 6.65448 2.63315 6.60905 2.57609C6.56362 2.51902 6.51104 2.45516 6.45133 2.38451C6.39162 2.31386 6.3332 2.24728 6.27608 2.18478L5.78929 2.75543C5.5738 3.01087 5.30314 3.13587 4.97732 3.13043C4.65149 3.125 4.38473 2.99185 4.17703 2.73098C4.02904 2.54348 3.9557 2.3288 3.957 2.08696C3.9583 1.84511 4.03424 1.63179 4.18482 1.44701L4.87412 0.607337C4.817 0.577446 4.7508 0.555027 4.67551 0.540082C4.60021 0.525136 4.53855 0.516984 4.49052 0.515625C4.44249 0.514266 4.36915 0.514946 4.27049 0.517663C4.17184 0.52038 4.10823 0.521739 4.07967 0.521739C3.84082 0.521739 3.63571 0.611413 3.46436 0.790761L2.84905 1.43478H2.24543V3.65217C2.25841 3.65217 2.28567 3.65149 2.32721 3.65014C2.36875 3.64878 2.39731 3.64878 2.41289 3.65014C2.42847 3.65149 2.45378 3.65421 2.48883 3.65829C2.52388 3.66236 2.55049 3.66848 2.56866 3.67663C2.58684 3.68478 2.60955 3.69633 2.63681 3.71128C2.66407 3.72622 2.68809 3.74457 2.70886 3.7663L3.86548 4.95652C4.16405 5.25815 4.45872 5.40897 4.7495 5.40897C4.952 5.40897 5.11427 5.34511 5.23629 5.21739C5.38428 5.27174 5.53032 5.26087 5.67441 5.18478C5.8185 5.1087 5.91261 4.99321 5.95675 4.83832C6.14887 4.85462 6.31373 4.79484 6.45133 4.65897C6.50325 4.61005 6.54999 4.54823 6.59153 4.47351C6.63307 4.39878 6.65124 4.33016 6.64605 4.26766C6.67201 4.29484 6.72783 4.30842 6.8135 4.30842C6.92514 4.30842 7.0251 4.27989 7.11337 4.22283C7.20164 4.16576 7.2659 4.09375 7.30614 4.00679C7.34638 3.91984 7.36196 3.82269 7.35287 3.71535C7.34378 3.60802 7.30419 3.50815 7.23409 3.41576ZM7.8533 3.65217H8.22715V1.56522H7.86498L7.25357 0.831522C7.08221 0.625 6.86283 0.521739 6.59542 0.521739H5.94506C5.714 0.521739 5.52447 0.612772 5.37649 0.794837L4.56257 1.78533C4.48987 1.875 4.45353 1.9769 4.45353 2.09103C4.45353 2.20516 4.48858 2.30707 4.55867 2.39674C4.67031 2.53533 4.81311 2.60598 4.98705 2.6087C5.161 2.61141 5.30509 2.54484 5.41933 2.40897L6.17094 1.52038C6.23584 1.45788 6.30529 1.42867 6.37928 1.43274C6.45328 1.43682 6.51429 1.47351 6.56232 1.5428C6.61035 1.61209 6.62138 1.68886 6.59542 1.7731C6.63696 1.82473 6.70965 1.91033 6.8135 2.02989C6.91735 2.14946 6.99524 2.24185 7.04716 2.30707C7.12246 2.40489 7.22955 2.54823 7.36845 2.73709C7.50735 2.92595 7.59108 3.04076 7.61963 3.08152C7.75464 3.26087 7.83253 3.45109 7.8533 3.65217ZM8.97487 3.65217C9.07872 3.65217 9.15141 3.6087 9.19295 3.52174C9.23449 3.43478 9.23449 3.34783 9.19295 3.26087C9.15141 3.17391 9.07872 3.13043 8.97487 3.13043C8.87102 3.13043 8.79832 3.17391 8.75678 3.26087C8.71524 3.34783 8.71524 3.43478 8.75678 3.52174C8.79832 3.6087 8.87102 3.65217 8.97487 3.65217ZM9.72258 1.30435V3.91304C9.72258 3.9837 9.69792 4.04484 9.64859 4.09647C9.59926 4.1481 9.54085 4.17391 9.47334 4.17391H7.7832C7.7131 4.35054 7.60665 4.49524 7.46386 4.60802C7.32107 4.72079 7.1588 4.79076 6.97707 4.81793C6.89139 4.94837 6.78689 5.0591 6.66357 5.15014C6.54025 5.24117 6.40719 5.30299 6.2644 5.3356C6.15536 5.47962 6.01971 5.59035 5.85744 5.6678C5.69518 5.74524 5.52837 5.77853 5.35702 5.76766C5.20124 5.86005 5.03768 5.91372 4.86633 5.92867C4.69498 5.94361 4.52947 5.92459 4.3698 5.8716C4.21013 5.81861 4.05825 5.74592 3.91416 5.65353C3.77007 5.56114 3.63571 5.45109 3.51109 5.32337L2.39342 4.17391H0.999238C0.931736 4.17391 0.873321 4.1481 0.823993 4.09647C0.774664 4.04484 0.75 3.9837 0.75 3.91304V1.17391C0.75 1.10326 0.774664 1.04212 0.823993 0.990489C0.873321 0.938859 0.931736 0.913043 0.999238 0.913043H2.63876C2.67511 0.875 2.73612 0.809783 2.82179 0.717391C2.90747 0.625 2.96913 0.559783 3.00678 0.521739C3.04442 0.483696 3.10154 0.429348 3.17813 0.358696C3.25472 0.288043 3.32027 0.237092 3.37479 0.205842C3.42931 0.174592 3.49552 0.139946 3.5734 0.101902C3.65129 0.0638587 3.73177 0.0373641 3.81485 0.0224185C3.89793 0.00747283 3.98621 0 4.07967 0H4.53531C4.79234 0 5.0273 0.076087 5.24019 0.228261C5.45308 0.076087 5.68804 0 5.94506 0H6.59542C6.68629 0 6.77326 0.00815217 6.85634 0.0244565C6.93942 0.0407609 7.01276 0.060462 7.07637 0.0835598C7.13998 0.106658 7.20683 0.142663 7.27693 0.191576C7.34703 0.240489 7.4048 0.282609 7.45023 0.317935C7.49566 0.353261 7.55148 0.406929 7.61769 0.47894C7.68389 0.550951 7.73452 0.608016 7.76957 0.650136C7.80462 0.692255 7.85784 0.757473 7.92923 0.845788C8.00063 0.934103 8.0545 1 8.09085 1.04348H9.47334C9.54085 1.04348 9.59926 1.06929 9.64859 1.12092C9.69792 1.17255 9.72258 1.2337 9.72258 1.30435Z" fill="#1D1D1D"/>
</g>
<defs>
<clipPath id="clip0_958_2994">
<rect width="9" height="6" fill="white"/>
</clipPath>
</defs>
</svg>
