<svg width="8" height="8" viewBox="0 0 8 8" fill="none" xmlns="http://www.w3.org/2000/svg">
<g clip-path="url(#clip0_958_2990)">
<path d="M3.99996 0C3.1162 0.000970532 2.26892 0.352472 1.64401 0.977383C1.0191 1.60229 0.667597 2.44958 0.666626 3.33333C0.666626 5.094 3.46663 7.511 3.78463 7.781L3.99996 7.963L4.21529 7.781C4.53329 7.511 7.33329 5.094 7.33329 3.33333C7.33232 2.44958 6.98082 1.60229 6.35591 0.977383C5.731 0.352472 4.88372 0.000970532 3.99996 0ZM3.99996 5C3.67032 5 3.34809 4.90225 3.07401 4.71912C2.79993 4.53598 2.58631 4.27568 2.46016 3.97114C2.33401 3.6666 2.30101 3.33148 2.36532 3.00818C2.42963 2.68488 2.58836 2.38791 2.82145 2.15482C3.05454 1.92173 3.35151 1.763 3.67481 1.69869C3.99811 1.63438 4.33322 1.66739 4.63777 1.79353C4.94231 1.91968 5.20261 2.1333 5.38574 2.40738C5.56888 2.68146 5.66663 3.0037 5.66663 3.33333C5.6661 3.7752 5.49033 4.19881 5.17789 4.51126C4.86544 4.82371 4.44182 4.99947 3.99996 5Z" fill="#1D1D1D"/>
<path d="M4 4.33325C4.55228 4.33325 5 3.88554 5 3.33325C5 2.78097 4.55228 2.33325 4 2.33325C3.44772 2.33325 3 2.78097 3 3.33325C3 3.88554 3.44772 4.33325 4 4.33325Z" fill="#1D1D1D"/>
</g>
<defs>
<clipPath id="clip0_958_2990">
<rect width="8" height="8" fill="white"/>
</clipPath>
</defs>
</svg>
